<svg height="200" viewBox="0 0 704 200" style="width:100%">
  <defs>
    <linearGradient id="prefix__a" x1="0" y1="0" x2="0" y2="1">
      <stop offset="5%" stop-color="#F7E0AF" stop-opacity=".6" />
      <stop offset="90%" stop-color="#F7E0AF" stop-opacity=".1" />
    </linearGradient>
  </defs>
  <g style="width:100%">
    <path stroke="#666" fill="none" style="width:100%" d="M18 170h676" />
    <g style="width:100%" fill="#666" text-anchor="middle"><text x="18" y="178" style="width:100%">
        <tspan x="18" dy=".71em">5am</tspan>
      </text><text x="356" y="178">
        <tspan x="356" dy=".71em">2am</tspan>
      </text><text x="688.006" y="178">
        <tspan x="688.006" dy=".71em">6pm</tspan>
      </text></g>
  </g>
  <path fill="url(#prefix__a)" fill-opacity=".6"
    d="M187 141.667c56.333-28.334 112.667-85 169-85s112.667 56.666 169 85C581.333 170 637.667 170 553.167 170H158.833c-84.5 0-28.166 0 28.167-28.333M525 170H158.833 525" />
  <path stroke="#FEDB41" fill="none"
    d="M187 141.667c56.333-28.334 112.667-85 169-85s112.667 56.666 169 85C581.333 170 637.667 170 553.167 170H158.833c-84.5 0-28.166 0 28.167-28.333" />
</svg>